<svg viewBox="0 0 252 252" xmlns="http://www.w3.org/2000/svg"><path d="m36.17 36.16h180v181.43h-180z" fill="#500000"/><path d="m192.27 108.37h-13.37-.77l-.35.7-9.69 20.18-9.73-20.19-.34-.69h-.77-12.92-1.22v1.23 6.88 1.23h1.22 2.21v28.9h-2.39-1.23v1.23 6.88 1.23h1.23 14.51 1.23v-1.23-6.88-1.23h-1.23-2.51v-20.51l10.84 22.35 1.1 2.28 1.12-2.28 10.95-22.4v20.56h-2.39-1.24v1.23 6.88 1.23h1.24 14.5 1.23v-1.23-6.88-1.23h-1.23-2.5v-28.9h2.5 1.23v-1.23-6.88-1.23z" fill="#fff"/><path d="m108 146.58h-3.86l-12.56-29h2.42v-9.38h-20.16v9.35h2.78l-12.55 29h-5.23v9.35h18.3v-9.35h-2.66l2.09-4.83h15.1l2.08 4.83h-2.81v9.35h18.31v-9.35zm-20.38-14.17h-7l3.5-8.11z" fill="#fff"/><path d="m176.91 72.08h-101.81-1.41v1.41 27.2 1.41h1.41 17.58 1.41v-1.41-10.1h21.72v71.67h-10.11-1.4v1.41 17.58 1.41h1.4 40.6 1.41v-1.41-17.58-1.41h-1.41-10.09v-71.67h21.59v9.97 1.41h1.41 17.7 1.41v-1.41-27.07-1.41z" fill="#fff"/><g fill="#b1b3b6"><path d="m139.22 170.63 4.3-4.43v12.14l-4.3-4.11z"/><path d="m132.06 166.52-4.31 4.24v-88.62l4.31 4.29z"/><path d="m82.31 80.58-4.42-4.3h94.09l-5.56 4.3z"/><path d="m174.26 98.03-4.3-4.11v-10.94l4.3-4.42z"/></g><path d="m222.57 214a3.61 3.61 0 1 1 3.61 3.61 3.61 3.61 0 0 1 -3.61-3.61zm6.34 0a2.73 2.73 0 1 0 -2.73 2.91 2.77 2.77 0 0 0 2.73-2.91zm-4.12-2.06h1.52c1 0 1.51.34 1.51 1.2a1 1 0 0 1 -1.07 1.1l1.1 1.79h-.78l-1.07-1.78h-.46v1.75h-.76zm.76 1.75h.67c.45 0 .84-.06.84-.61s-.44-.56-.83-.56h-.68z" fill="#500000"/></svg>