<?xml version="1.0" encoding="utf-8"?>
<!-- Generator: Adobe Illustrator 25.0.0, SVG Export Plug-In . SVG Version: 6.00 Build 0)  -->
<svg version="1.1" id="Layer_1" xmlns="http://www.w3.org/2000/svg" xmlns:xlink="http://www.w3.org/1999/xlink" x="0px" y="0px"
	 viewBox="0 0 811.1 225" style="enable-background:new 0 0 811.1 225;" xml:space="preserve">
<style type="text/css">
	.st0{fill:#FFFFFF;}
</style>
<g id="Layer_2_1_">
	<path class="st0" d="M546.8,69.7c0.9-4.2,0.8-8.6-0.5-12.8c-1.2-3.8-3.4-7.2-6.5-9.8c-8.4-7.4-21.5-9.2-30.9-9.3
		c-12.8-0.1-25.4,2.1-37.5,6.3c-2.8,1-4.2,4-3.3,6.8c1,2.8,4.1,4.3,6.9,3.3c5.6-2,11.4-3.5,17.3-4.4c-1.8,4.2-4.2,10.2-7.2,18.2
		c-2.9,7.8-6.5,18.1-10.5,31.2c-0.1,0.1-0.2,0.3-0.1,0.4c-4.8,14.8-10.1,33-15.8,54.5c-0.7,2.9,0.9,5.8,3.8,6.6
		c0.5,0.1,1,0.2,1.5,0.2c2.4-0.1,4.4-1.6,5.1-3.9c5.1-19.9,10.1-36.6,14.5-50.4c11.3-0.2,22.4-2.4,33-6.3
		C533.5,93.9,543.8,83.2,546.8,69.7z M536.3,67.5c-4.4,20.2-31.9,27.3-49.2,28.3c3.2-9.6,5.9-17.6,8.1-23.8
		c4.4-11.9,7.7-19.7,9.5-23.5h4.1c10.8,0.2,19.4,2.6,24.1,6.6C536.5,58.3,537.5,62.2,536.3,67.5z"/>
	<path class="st0" d="M779.3,118.6c-2.7-1.2-5.9,0.1-7.1,2.9c-6.8,16-21.5,21.8-29.8,21.8c-4.1,0-9.3-1.8-11.3-5.6
		c-0.8-1.5-1.1-3.2-0.9-4.8c32.2-6,39.6-18.8,41.1-26.1c0.6-2.9,0.4-5.8-0.6-8.6c-0.8-2.6-2.5-4.9-4.8-6.5
		c-1.4-0.9-6.8-3.9-14.9-1.5c-7.2,2.3-14.2,8-20.8,17.2c-5.3,7.2-8.6,14-9.9,19.9c-0.1,0.6-0.3,1.3-0.4,1.9c-1.7,3.2-4.1,6-7,8.1
		c-3.2,2.3-6.9,3.8-10.8,4.2h-0.2c-2.4-0.3-4.8-0.4-6-2.2c-1-1.5-3-6.5,1.7-21.1c0.4,0,0.7-0.1,1-0.3c10.7-4.5,20.2-12.6,28.6-24.2
		c6.1-8.5,10.9-17.9,14.2-27.9c2-5.5,3.1-11.3,3-17.2c-0.3-7.4-3.5-10.5-6.2-11.8c-1.7-0.9-5.4-2-10.1,0.8c-3.1,2.2-5.8,4.9-7.8,8.1
		c-5.3,7.4-11.8,18.8-17.9,32.1c-5.5,11.5-10.4,23.2-14.5,35.3c0-1-0.1-2-0.3-2.9c-0.6-3.7-2.2-7.2-4.5-10.2c-2.3-2.9-5.6-5-9.2-5.9
		c-5.9-1.5-12.2-0.8-17.6,2.1c-4.4,2.4-8.4,6.3-12.2,11.8c0.6-4.5,1.3-9,2-13.9c0.4-2.9-1.7-5.6-4.7-6c0,0,0,0,0,0
		c-2.9-0.4-5.5,1.7-5.9,4.6c0,0,0,0.1,0,0.1c-1.2,8.8-2.6,17.1-4,24.8c-1.3,0.2-2.4,0.9-3.2,1.8c-2.4,3.4-5.8,5.9-9.8,7.2
		c0.4-0.7,0.8-1.5,1.1-2.3c2.9-6.6,3.9-13.6,2.9-19.4c-1.2-6.6-5-11.4-10.1-13.3c-3.3-1.1-9.8-1.8-17.9,5.6c-2.7,2.2-4.8,5.2-6,8.4
		c-1.5-0.1-2.9,0.4-3.9,1.5c-4.9,4.6-8.9,10.1-11.6,16.3c-7,14.7-21,20.2-29,20.2c-4.1,0-9.3-1.8-11.3-5.6c-0.8-1.5-1.1-3.2-0.9-4.8
		c32.2-6,39.6-18.8,41.1-26.1c0.7-2.9,0.4-5.8-0.6-8.6c-0.8-2.6-2.5-4.9-4.8-6.5c-1.3-0.9-6.8-3.9-14.9-1.5
		c-7.2,2.3-14.2,8-20.8,17.2c-5.3,7.2-8.6,14-9.9,19.9s-0.9,11,1.3,15.4c4.2,8.3,13.8,11.3,20.8,11.3c6.8,0,14.6-2.4,21.2-6.6
		c1.9-1.2,3.8-2.5,5.5-4c0.6,2.1,1.6,4,3.1,5.7c2.5,2.8,6.2,4.3,9.9,4.2c1.2,0,2.4-0.1,3.6-0.3c4.8-1,10.5-4.1,16.7-9
		c2.4-2,4.6-4.2,6.8-6.5c4.2,0.5,8.4,0,12.3-1.5c1.8-0.7,3.5-1.6,5-2.6c-1.8,8.1-3.5,15.3-5,21.1c-2.7,8-5.4,17.2-8.4,27.3
		c-0.8,2.8,0.7,5.7,3.5,6.6c0.6,0.2,1.2,0.3,1.8,0.3c2.2,0,4.2-1.4,5-3.5c0.2-0.4,3.5-9.5,7.8-25.3c0.2-0.9,0.5-1.7,0.6-2.6
		c1.1-3,2.1-5.9,3-8.7c0.2,0.3,0.5,0.4,0.6,0.6c2.6,1.9,5.8,2.9,9,3c6.8,0.6,14-1.7,21.8-6.6c7.4-4.7,12.9-10.3,16.2-16.8
		c-0.8,7.1,0.2,12.5,3,16.4c4.5,6.2,11.8,6.3,14.8,6.9h0.2c7.9-0.6,14.5-4.7,19.6-9.8c4.3,8.2,13.9,11.2,20.8,11.2
		s14.6-2.4,21.2-6.6c8.3-5.2,14.8-12.8,18.5-21.8C783.3,122.8,782,119.7,779.3,118.6C779.3,118.6,779.3,118.6,779.3,118.6z
		 M739,113.6c6.5-9,11.8-12,15.1-13.1c1-0.3,2.1-0.4,3.2-0.5c1,0,2,0.2,2.9,0.6c0.5,0.3,1.2,1.8,0.8,3.9
		c-1.1,5.4-8.7,12.2-26.7,16.6C735.6,118.5,737.2,116,739,113.6L739,113.6z M729,51.8c1.2-1.8,2.7-3.4,4.4-4.7
		c0.2,1.1,0.3,2.3,0.3,3.5c-0.2,4.1-1,8.1-2.4,11.9c-4.5,13.6-14.5,31.2-28.5,41C710.3,84.3,720.9,63.2,729,51.8z M540.5,114.1
		c6.5-9,11.7-12.1,15.1-13.1c1-0.3,2.1-0.4,3.2-0.4c1,0,2,0.2,2.9,0.6c0.5,0.3,1.2,1.8,0.8,3.9c-1,5.4-8.7,12.2-26.7,16.6
		C537.1,119,538.8,116.5,540.5,114.1z M597.3,136.1c-6,4.8-9.9,6.3-12,6.8c-2.6,0.4-3.2-0.3-3.5-0.4c-1.2-1.5-1.8-5.3-0.5-10.5
		c0.3-0.9,0.6-1.8,0.9-2.8c0.5-1,1-2.1,1.5-3.1c0.1-0.2,0.1-0.4,0.2-0.6c1.1-2.2,2.4-4.3,3.9-6.2c2,6.2,6.2,11.4,11.9,14.7
		C598.9,134.8,598,135.4,597.3,136.1L597.3,136.1z M606.8,125.7l-8.8-9.9c-1.2-3.9,0-7.5,3.5-10.7c2.6-2.3,4.8-3.5,6.5-3.5
		c0.3,0,0.6,0,0.9,0.2c1.3,0.4,2.6,2.4,3,5C612.8,111.9,611.3,118.8,606.8,125.7L606.8,125.7z M662.2,137.4
		c-6.8,4.2-11.6,5.1-14.5,5.1c-1.5,0-2.9-0.4-4.2-1.1h-0.2c-1-0.8-2.3-1.2-3.6-1.1c3-7.9,6.7-15.6,11-23
		c8.4-13.2,14.9-13.9,20.8-12.5c2.7,0.6,4.8,3.6,5.6,7.5C678.2,119.2,675,129.4,662.2,137.4L662.2,137.4z"/>
	<path class="st0" d="M81.6,99.1c-1.5-1.5-3.3-2.7-5.2-3.7c-2-1-4.1-1.9-6.3-2.5c-2.2-0.7-4.5-1.3-6.8-1.8l-6.7-1.4
		c-3.2-0.6-6.3-1.4-9.3-2.5c-2.1-0.7-4.2-1.7-6-3c-1.4-1-2.5-2.3-3.2-3.8c-0.6-1.6-1-3.3-0.9-5c-0.1-4,1.8-7.8,5.1-10
		c3.4-2.4,8.4-3.7,15-3.7c2.8,0,5.7,0.3,8.4,1c2.3,0.6,4.4,1.6,6.4,2.9c1.7,1.2,3.2,2.7,4.4,4.4c1.1,1.7,1.9,3.6,2.4,5.5v0.1h5.5
		v-0.1c-0.7-5.8-3.8-11-8.6-14.3c-2.5-1.8-5.4-3.1-8.4-3.9c-3.4-0.9-7-1.4-10.5-1.3c-3.5,0-7.1,0.4-10.5,1.4c-2.9,0.8-5.7,2.2-8.1,4
		c-2.2,1.7-4,3.8-5.2,6.3c-1.2,2.5-1.9,5.2-1.9,8c0,2.4,0.4,4.8,1.4,7.1c1,2.1,2.4,4,4.2,5.4c2.2,1.7,4.6,3.1,7.2,4.1
		c3.4,1.3,7,2.4,10.6,3.1c4.9,1,9.1,2.1,12.4,3c2.8,0.8,5.5,1.9,8,3.4c1.8,1,3.3,2.6,4.3,4.4c0.9,2,1.3,4.1,1.3,6.2
		c0,2.2-0.5,4.4-1.5,6.3c-1,1.9-2.5,3.5-4.3,4.8c-2.1,1.4-4.3,2.4-6.8,3c-2.9,0.7-5.9,1-8.9,1c-3,0-6-0.3-9-0.8
		c-2.6-0.5-5.2-1.4-7.5-2.8c-2.2-1.3-4.1-3.1-5.5-5.3c-1.6-2.5-2.6-5.4-3-8.3v-0.1h-5.6v0.1c0.2,3.3,1,6.6,2.4,9.6
		c1.4,2.8,3.4,5.3,5.9,7.2c2.9,2.1,6.1,3.7,9.5,4.6c4.3,1.1,8.8,1.7,13.2,1.6c3.6,0,7.3-0.5,10.7-1.6c3.1-1,6-2.5,8.5-4.5
		c2.3-1.9,4.2-4.2,5.6-6.9c1.4-2.7,2-5.7,2-8.8c0.1-2.5-0.4-4.9-1.3-7.2C84.4,102.4,83.1,100.6,81.6,99.1z"/>
	<polygon class="st0" points="94.4,62.6 120.4,62.6 120.4,130.6 125.7,130.6 125.7,62.6 151.7,62.6 151.7,57.4 94.4,57.4 	"/>
	<path class="st0" d="M213.4,106.4c-0.5-1.3-1.1-2.5-1.8-3.7c-0.7-1.1-1.4-2.2-2.3-3.2c-1-1.1-2.1-2.1-3.2-2.9
		c2.3-0.5,4.5-1.3,6.5-2.5c1.8-1.1,3.5-2.6,4.8-4.3c1.3-1.7,2.2-3.7,2.8-5.8c0.6-2.2,0.9-4.6,0.9-6.9c0.1-3.4-0.6-6.7-2-9.8
		c-1.3-2.4-3.1-4.5-5.5-6c-2.4-1.5-5-2.5-7.8-3c-3-0.6-6-0.8-9-0.8h-33.3v74.2h5.2v-33h25.5c1.8,0,3.6,0.3,5.2,1.1
		c1.5,0.7,2.8,1.7,3.9,2.9c1.2,1.3,2.2,2.7,3,4.3c0.9,1.7,1.7,3.5,2.4,5.3l7.3,19.4v0.1h6.9l-7.6-20.7
		C214.5,109.3,213.9,107.7,213.4,106.4z M214,84.1c-0.8,1.9-2.1,3.6-3.7,4.8c-1.9,1.3-4.1,2.2-6.4,2.7c-3.1,0.6-6.3,0.9-9.4,0.8
		h-25.7V62.6H196c6.4,0,11.2,1.1,14.4,3.3c3.2,2.2,4.8,5.8,4.8,10.9C215.3,79.3,214.9,81.8,214,84.1z"/>
	<path class="st0" d="M294,66.4c-3.1-3.3-6.9-6-11-7.7c-9-3.6-19-3.6-28,0c-4.2,1.8-7.9,4.4-11,7.7c-3.2,3.5-5.7,7.6-7.3,12
		c-1.8,5-2.7,10.4-2.7,15.7c-0.1,5.4,0.8,10.7,2.6,15.7c1.6,4.5,4,8.6,7.2,12.2c3.1,3.4,6.8,6,11,7.9c9,3.7,19.2,3.7,28.2,0
		c4.2-1.8,7.9-4.5,11-7.9c3.2-3.6,5.6-7.7,7.2-12.2c1.8-5,2.6-10.3,2.6-15.7c0.1-5.3-0.8-10.6-2.6-15.7
		C299.6,74,297.1,69.9,294,66.4z M297.9,94.1c0.1,4.8-0.7,9.5-2.1,14c-1.3,3.8-3.3,7.4-6,10.4c-2.6,2.8-5.7,5-9.2,6.4
		c-7.5,2.9-15.8,2.9-23.3,0c-3.5-1.4-6.6-3.6-9.2-6.4c-2.7-3-4.7-6.5-6-10.4c-1.5-4.5-2.2-9.2-2.1-14c-0.1-4.7,0.7-9.4,2.2-13.9
		c1.3-3.8,3.3-7.2,6-10.2c2.6-2.7,5.7-4.9,9.2-6.3c3.7-1.5,7.7-2.2,11.7-2.2c3.9,0,7.8,0.7,11.5,2.1c3.5,1.4,6.6,3.5,9.1,6.2
		c2.7,2.9,4.7,6.4,6,10.2C297.2,84.6,297.9,89.3,297.9,94.1L297.9,94.1z"/>
	<polygon class="st0" points="369.4,124.2 324.7,57.4 324.7,57.4 317.4,57.4 317.4,131.6 322.7,131.6 322.7,64.2 367.5,131.6 
		367.5,131.6 374.7,131.6 374.7,57.4 369.4,57.4 	"/>
	<path class="st0" d="M430.4,100.6h20v12.9c-3,4-6.8,7.2-11.1,9.5c-4.8,2.4-10.2,3.6-15.6,3.4c-4,0-8-0.7-11.7-2.2
		c-3.5-1.4-6.6-3.5-9.1-6.3c-2.6-3-4.7-6.4-5.9-10.2c-1.5-4.4-2.2-9.1-2.1-13.8c-0.1-4.7,0.7-9.3,2.1-13.8c1.3-3.7,3.3-7.1,5.9-10
		c2.5-2.7,5.6-4.8,9.1-6.1c3.7-1.4,7.7-2.1,11.6-2c3.2,0,6.3,0.4,9.4,1.2c2.7,0.8,5.2,1.9,7.5,3.4c2,1.3,3.8,3,5.2,4.9
		c1.3,1.8,2.2,3.8,2.5,6v0.1h6.7v-0.2c-0.7-3.1-1.9-6.1-3.7-8.8c-1.9-2.7-4.2-5-6.9-6.8c-2.9-1.9-6.1-3.4-9.4-4.3
		c-3.7-1-7.5-1.6-11.4-1.5c-4.9-0.1-9.7,0.9-14.2,2.7c-4.2,1.7-8,4.3-11.1,7.7c-3.2,3.5-5.6,7.6-7.2,12c-1.8,5.1-2.6,10.5-2.6,15.8
		c-0.1,5.4,0.8,10.8,2.6,15.9c1.5,4.5,4,8.7,7.2,12.2c3.1,3.4,7,6,11.2,7.8c4.6,1.9,9.5,2.8,14.5,2.8c2.6,0,5.2-0.2,7.7-0.6
		c2.5-0.4,4.9-1,7.3-1.9c2.3-0.9,4.5-2,6.6-3.5c2.1-1.4,3.9-3.1,5.5-5.1l2.3,9.6v0.1h3.3V95.4h-26.2V100.6z"/>
</g>
</svg>
